<svg xmlns="http://www.w3.org/2000/svg" viewBox="0 0 24 24">
  <path d="M6.6 2.5c-2 0-2.8 1-2.8 3v2.8c0 1.7-.7 2.7-2 3.2 1.3.6 2 1.6 2 3.3v3.7c0 2 .8 3 2.8 3M17.4 2.5c2 0 2.8 1 2.8 3v2.8c0 1.7.7 2.7 2 3.2-1.3.6-2 1.6-2 3.3v3.7c0 2-.8 3-2.8 3" fill="none" stroke="#c5c5c5" stroke-width="1.7" stroke-linecap="round"/>
  <text x="12" y="10.2" fill="#c5c5c5" font-family="monospace" font-size="4.3" font-weight="700" text-anchor="middle">JSON</text>
  <text x="12" y="15.7" fill="#c5c5c5" font-family="monospace" font-size="3.7" font-weight="700" text-anchor="middle">JSONL</text>
</svg>
